<?xml version="1.0" encoding="UTF-8" standalone="no"?>
<svg
   xmlns:dc="http://purl.org/dc/elements/1.1/"
   xmlns:cc="http://creativecommons.org/ns#"
   xmlns:rdf="http://www.w3.org/1999/02/22-rdf-syntax-ns#"
   xmlns:svg="http://www.w3.org/2000/svg"
   xmlns="http://www.w3.org/2000/svg"
   xmlns:sodipodi="http://sodipodi.sourceforge.net/DTD/sodipodi-0.dtd"
   xmlns:inkscape="http://www.inkscape.org/namespaces/inkscape"
   viewBox="0 -284 400 400"
   height="200"
   width="200"
   version="1.1"
   id="svg12"
   sodipodi:docname="icon.svg"
   inkscape:version="0.92.5 (2060ec1f9f, 2020-04-08)">
  <metadata
     id="metadata18">
    <rdf:RDF>
      <cc:Work
         rdf:about="">
        <dc:format>image/svg+xml</dc:format>
        <dc:type
           rdf:resource="http://purl.org/dc/dcmitype/StillImage" />
        <dc:title></dc:title>
      </cc:Work>
    </rdf:RDF>
  </metadata>
  <defs
     id="defs16" />
  <sodipodi:namedview
     pagecolor="#ffffff"
     bordercolor="#666666"
     borderopacity="1"
     objecttolerance="10"
     gridtolerance="10"
     guidetolerance="10"
     inkscape:pageopacity="0"
     inkscape:pageshadow="2"
     inkscape:window-width="1864"
     inkscape:window-height="1024"
     id="namedview14"
     showgrid="false"
     fit-margin-top="0"
     fit-margin-left="0"
     fit-margin-right="0"
     fit-margin-bottom="0"
     scale-x="1.33333"
     viewbox-x="0.2"
     viewbox-height="400.4"
     viewbox-y="-284"
     inkscape:zoom="3.337544"
     inkscape:cx="83.740906"
     inkscape:cy="90.673167"
     inkscape:window-x="0"
     inkscape:window-y="27"
     inkscape:window-maximized="1"
     inkscape:current-layer="svg12" />
  <circle
     cx="200"
     cy="-83.366669"
     id="ellipse2"
     r="200"
     style="fill:#19a2de" />
  <path
     d="m 110,-103.36667 v 0 -40 a 90,85 0 1 1 180,0 v 0 40"
     id="path4"
     inkscape:connector-curvature="0"
     style="fill:none;stroke:#ffffff;stroke-width:45" />
  <path
     d="m 65,-52.366667 v 0 -26 a 15,15 0 0 1 15,-15 h 240 v 0 a 15,15 0 0 1 15,15 v 0 26 z"
     id="path6"
     inkscape:connector-curvature="0"
     style="fill:#ffffff;stroke:none" />
  <path
     d="m 65,-44.366667 v 0 42.0000003 h 270 v 0 0 -42.0000003 z"
     id="path8"
     inkscape:connector-curvature="0"
     style="fill:#ffffff;stroke:none" />
  <path
     d="m 65,5.6333333 v 0 25.9999997 a 15,15 0 0 0 15,15 h 240 v 0 a 15,15 0 0 0 15,-15 v 0 -25.9999997 z"
     id="path10"
     inkscape:connector-curvature="0"
     style="fill:#ffffff;stroke:none" />
</svg>
